<svg xmlns="http://www.w3.org/2000/svg" id="Layer_1" data-name="Layer 1" viewBox="0 0 487.03 500">
	<path d="M116.57,303.15c-.18-.78-.36-1.53-.54-2.28s-.4-1.75-.6-2.6q-3.41-14.49-6.17-29.08c-.31-1.68-.31-1.68-.61-3.33-.2-1-.39-2.06-.59-3.07A31,31,0,0,0,107,258c-2-1-2-1-4-.77l-2.54.52-2.92.58-3.2.67c-9.76,2-19.48,4.15-29.19,6.37-16.07,3.69-32.22,6.93-48.4,10.1L14,276a30.84,30.84,0,0,0,.88,8.69c1,3.86,1.8,7.73,2.52,11.67,1.81,10,4,19.82,6.6,29.64a132.49,132.49,0,0,0,23.25-3.63c3.91-.91,7.84-1.81,11.76-2.69l2.43-.55c7.31-1.66,14.64-3.19,22-4.64C94.66,312.29,105.86,310,117,307A12.77,12.77,0,0,0,116.57,303.15ZM99,296l-16,3.62-5.43,1.23Q68.22,303,59,305l-2.71.6-7.8,1.69-2.37.53A41.3,41.3,0,0,1,35,309c-.67-3.13-1.34-6.25-2-9.38-.19-.89-.38-1.78-.58-2.69l-.54-2.58c-.17-.79-.34-1.57-.51-2.38a14.35,14.35,0,0,1-.37-4q21.54-5.4,43.25-9.88l2.27-.47,6.43-1.33,3.76-.77A38.42,38.42,0,0,1,95,275c.68,2.37,1.34,4.75,2,7.12l.58,2A39.59,39.59,0,0,1,99,296Z" fill="hsl(217.2 91.2% 59.8%)" />
	<path d="M326,35c-1.86-.57-3.74-1.13-5.63-1.6-8.82-2.13-17.54-4.57-26.25-7.15L291,25.32,288,24.45A96.55,96.55,0,0,0,278,22c-2.05,5.24-3.81,10.51-5.4,15.91l-.85,3c-2.53,8.7-4.92,17.43-7.25,26.19-2.26,8.54-4.69,17-7.31,25.44A160.64,160.64,0,0,0,252,113c4.25,1.26,8.49,2.53,12.72,3.84,12,3.73,24,7.25,36.28,10.16q3.58-12.6,7.25-25.19c3-10.24,6-20.49,8.87-30.75,1.26-4.42,2.52-8.84,3.83-13.24.34-1.15.67-2.26,1-3.37l2-6.64c.33-1.08.65-2.13,1-3.17l.88-2.94C326.6,38.81,327.31,37.72,326,35ZM307.66,52l-.91,3c-.32,1.08-.65,2.15-1,3.26l-2,6.64-1,3.23Q301.34,73,300,78c-2.94,10.35-6,20.67-9,31l-7.69-1.88-2.18-.52A67.84,67.84,0,0,1,270,103a160.22,160.22,0,0,1,5.19-20.5c3.11-10,5.88-20,8.5-30.07l.83-3.16c.24-.92.48-1.85.72-2.8A33.86,33.86,0,0,1,288,40q5,1.17,9.94,2.37l2.86.67,2.73.67,2.52.6C308,45,308,45,309,47A42.25,42.25,0,0,1,307.66,52Z" fill="hsl(217.2 91.2% 59.8%)" />
	<path d="M469.54,212.14c-.26-1.14-.51-2.24-.77-3.34-1.71-7.53-3.57-15-5.46-22.53l-1.11-4.37q-1.62-6.45-3.25-12.9c-4,0-4,0-6,.41l-2.23.58-2.63.68c-11.29,3-22.63,5.64-34,8.25-15.72,3.6-31.43,7.26-47.1,11.08a36,36,0,0,0,.36,7.11c.18.72.35,1.43.52,2.13s.4,1.64.59,2.45.44,1.75.65,2.62q1.05,4.29,2.11,8.57c.26,1.06.51,2.09.77,3.12q3,12,6,24a17.18,17.18,0,0,0,5.21-.46l2.6-.64,3-.73c8.91-2.21,17.83-4.33,26.81-6.28C433.44,228,451.19,223.51,469,219A12.32,12.32,0,0,0,469.54,212.14Zm-24-2.35-2.31.57L423,215.28q-7,1.69-14,3.43l-5.52,1.35-2.44.62A41,41,0,0,1,389,222c-.67-2.56-1.34-5.13-2-7.69l-.58-2.19-.54-2.13c-.26-1-.26-1-.51-2a33.71,33.71,0,0,1-.37-7l1.85-.44q21-5,41.93-10.29l3.39-.85,3-.76A55.14,55.14,0,0,1,448,187q1.26,4.4,2.5,8.81c.36,1.25.36,1.25.72,2.53.23.8.45,1.6.69,2.43s.42,1.47.63,2.23a15.09,15.09,0,0,1,.46,5Z" fill="hsl(217.2 91.2% 59.8%)" />
	<path d="M219.75,384.26l-4.15-1.42-6.71-2.28c-9.24-3.18-18.21-6.26-27.94-7.56a122.69,122.69,0,0,0-5.75,15.69q-1.39,4.59-2.8,9.17c-.21.7-.42,1.37-.63,2q-2.7,8.78-5.5,17.49c-.33,1-.64,2-1,2.95l-3.81,11.85-2.76,8.54c-.43,1.36-.43,1.36-.86,2.69A146.5,146.5,0,0,0,153,463c4.53,1.31,9,2.67,13.49,4.17l3.73,1.27,7.84,2.68c7.93,2.76,15.48,5.41,23.94,5.88q5.25-17.62,10.88-35.13,4-12.6,8-25.24c.93-3,1.86-5.92,2.81-8.88l.73-2.23c.45-1.43.91-2.85,1.36-4.27A73,73,0,0,0,229,387,89.14,89.14,0,0,1,219.75,384.26Zm-13.07,29.29-1,3.07q-1.55,4.85-3.12,9.69l-2.07,6.48c-2.81,8.75-5.63,17.5-8.55,26.21a68.47,68.47,0,0,1-20-5c-1.12-3.36-.92-3.95.22-7.15l.88-2.52c.31-.89.63-1.79,1-2.71,2.56-7.38,4.91-14.78,7-22.31,2.66-9.55,5.71-18.94,8.94-28.31a124.62,124.62,0,0,1,15.56,4.12l3.13,1.07L211,397C210.22,402.74,208.45,408.06,206.68,413.55Z" fill="hsl(217.2 91.2% 59.8%)" />
	<path d="M395.86,371.79l-2.12-2.26-4.23-4.47c-3.84-4.06-7.65-8.13-11.31-12.35-2.16-2.51-4.39-4.89-6.75-7.21-1.84-1.8-3.59-3.61-5.29-5.54A75.43,75.43,0,0,0,355,329c-.83.83-1.71,1.61-2.6,2.38-2.8,2.41-5.57,4.81-8.2,7.39-2.31,2.35-4.59,4.69-7.06,6.87-6.42,5.49-14.81,11.41-18.14,19.36q19.68,21.72,39.8,43.05,10.61,11.29,21.1,22.67c.72.77,1.41,1.52,2.1,2.28a56.92,56.92,0,0,0,7.84-5.68c2.24-2.39,4.5-4.74,7-6.91,5.4-4.58,10.39-9.51,15.37-14.55l5.69-5.73L420,398C412.15,389.05,404,380.42,395.86,371.79ZM383,412c-13.06-12.88-13.06-12.88-18.46-19.24-1.61-1.84-3.3-3.55-5-5.26-3-3-5.77-6.05-8.52-9.24-3.92-4.49-8-8.86-12-13.26,12.19-15,12.19-15,17-15a37.36,37.36,0,0,1,3.19,3.56c2.34,2.76,4.72,5.4,7.31,7.94,2.35,2.31,4.57,4.68,6.71,7.18,4.49,5.16,9.2,10.1,13.92,15.05,4.09,4.32,8,8.72,11.87,13.27C387.73,410.4,387.73,410.4,383,412Z" fill="hsl(217.2 91.2% 59.8%)" />
	<path d="M159.57,123.12c-2.16-2.39-4.31-4.77-6.44-7.19q-4.8-5.5-9.68-10.93c-2.06-2.28-4.12-4.57-6.14-6.89-3.95-4.59-8.08-9-12.24-13.42s-8.37-9.15-12.24-14.07c-1.89-2.48-3.09-4.25-5.92-5.57a4.51,4.51,0,0,0-3.57.89l-1.7,1.62-2.1,2c-2.63,2.53-5.29,5-8,7.53l-2,1.83c-4.54,4.28-9.12,8.37-14,12.25C72.49,93.54,70.44,95.28,69,99c7.39,8.77,14.82,17.48,22.5,26,2.06,2.28,4.12,4.56,6.14,6.88,4,4.6,8.08,9,12.24,13.43s8.28,9,12.12,13.81A52.56,52.56,0,0,0,132,169c3.67-3.27,7.33-6.54,11-9.78s7.34-6.45,11-9.72c3.12-2.83,6.28-5.59,9.5-8.31A17.46,17.46,0,0,0,169,134C165.92,130.28,162.79,126.68,159.57,123.12Zm-18.5,18.57-1.64,1.5c-2.47,2.23-4.29,3.75-7.48,4.81-14.27-15.19-14.27-15.19-19.37-21.13-2-2.26-4-4.47-6-6.68-6.16-6.83-11.88-14-17.62-21.19l6.31-5.88,1.81-1.68,1.74-1.62,1.61-1.49A30.5,30.5,0,0,1,105,85l3.45,3.45,3.19,3.16c3.67,3.6,7.12,7.33,10.48,11.22,2.1,2.42,4.23,4.79,6.38,7.17,3.28,3.63,6.53,7.28,9.72,11,1.31,1.48,2.66,2.93,4,4.36l2.25,2.4,2.09,2.17c1.41,2.08,1.41,2.08,1.5,4C146.36,137.13,143.76,139.31,141.07,141.69Z" fill="hsl(217.2 91.2% 59.8%)" />
	<path d="M217,20c2.46,2.46,2.69,4.08,3.52,7.45l.86,3.46.92,3.78,1,3.89q1.28,5.16,2.53,10.32,2.25,9.15,4.51,18.29l.48,2c2.25,9.11,4.61,18.18,7.2,27.2,3,10.75,3,10.75,3,15.63q-22.24,6.14-44.61,11.81l-5.4,1.39c-2.56.66-5.11,1.31-7.67,2l-2.32.62c-4,1-7,1.46-11,.23l-.43-1.7q-2.21-8.91-4.43-17.82c-.55-2.21-1.09-4.41-1.64-6.62-3-12.06-6.06-24.09-9.44-36.06q-2-7.27-3.88-14.61l-.65-2.52c-1-4-1.83-7.54-1.53-11.67l4.18-1,2.36-.56A38,38,0,0,1,162,35l.74,2.93c5.32,21,5.32,21,11,42q2.66,9.44,5.06,18.93l.66,2.59.61,2.41.54,2.12c.38,2,.38,2,.38,6l2.55-.88,3.32-1.12,3.3-1.13C193,108,193,108,195,108c-2.3-9.37-4.6-18.73-7.25-28-2.49-8.75-4.72-17.57-6.94-26.39-.42-1.65-.83-3.3-1.25-5-.6-2.34-1.19-4.69-1.77-7l-.55-2.15A36.93,36.93,0,0,1,176,30l14-3,1.11,4.39q2.08,8.2,4.16,16.41.9,3.53,1.79,7.05,1.31,5.11,2.6,10.23l.86,3.38c1.87,7.3,3.82,14.57,6,21.79A78.3,78.3,0,0,1,209,104l14-3-1.21-4.73-4.5-17.67c-.65-2.53-1.29-5.06-1.94-7.59l-5.51-21.68q-1.2-4.74-2.42-9.49L206,34.39l-.64-2.48A35.08,35.08,0,0,1,204,23q3.18-.84,6.37-1.63l3.59-.91Z" fill="hsl(217.2 91.2% 59.8%)" />
	<path d="M383,251c16.24,4.69,32.48,9.4,48.67,14.3l7.32,2.19Q456,272.58,473,278q-.43,2.65-.88,5.31l-.49,3C471,289,471,289,469,292c-7.86-1.6-15.47-3.86-23.13-6.19l-4-1.21q-9.22-2.78-18.43-5.61c-10.43-3.2-20.86-6.3-31.44-9-.34,1.41-.68,2.83-1,4.25l-.57,2.39c-.56,2.61-.56,2.61-.43,6.36,14.6,4.56,29.2,9.11,43.89,13.38,4.2,1.23,8.4,2.49,12.61,3.74l2.46.74c5.38,1.61,10.71,3.34,16,5.14l-4,14a168.26,168.26,0,0,1-19-5.19c-8.14-2.64-16.31-5.06-24.57-7.31C406.09,304.4,395,300.83,384,297l-.63,2.55-.81,3.32-.81,3.31A17,17,0,0,1,380,311l1.95.34c4,.86,7.84,2,11.73,3.22l2.62.79q11,3.31,21.88,6.71c18.8,5.84,18.8,5.84,37.82,10.94a52.68,52.68,0,0,1-3,15c-6.31-1.33-12.42-3-18.57-4.88l-6.05-1.86-3.46-1.06c-4.55-1.4-9.1-2.76-13.66-4.12l-2.61-.78-10.44-3.12Q380,326.77,362,321a70.25,70.25,0,0,1,2.31-10.56l.81-2.62L366,305l1.89-6.14,1-3.32c2-6.45,3.9-12.9,5.84-19.35l1.14-3.81,1.09-3.65,1-3.47q.94-3.17,1.87-6.33l.81-2.76.69-2.39C382,252,382,252,383,251Z" fill="hsl(217.2 91.2% 59.8%)" />
	<path d="M380,63l3.31,2.81,1.86,1.58L387,69l1.79,1.45C390,72,390,72,389.89,73.94c-1.25,2.71-2.84,4-5.13,5.93-4.51,3.91-8.75,8-12.94,12.25s-8.23,8.14-12.69,11.91c-3.83,3.45-7.41,7.16-11,10.83a120.86,120.86,0,0,1-11.91,10.71c-1.7,1.61-1.7,1.61-1.25,5.43a17.36,17.36,0,0,0,3.5,3.75l2,1.86L342,138a22.22,22.22,0,0,0,7.39-5.23l1.88-1.92,2-2q2-2.07,4.07-4.13l1.84-1.88c2.46-2.41,5.05-4.65,7.68-6.87,3.83-3.44,7.39-7.15,11-10.81s7.33-7.13,11.26-10.46,7.33-7,10.89-10.66l3.31,2.81,1.86,1.58L407,90l1.79,1.45L410,93c-.42,3.31-1.51,4.84-4,7l-1.86,1.69-2,1.78L398,107.25l-2.09,1.9c-2.89,2.68-5.66,5.47-8.42,8.29-3.06,3.09-6.12,6.12-9.44,8.93-4.61,3.92-8.8,8.25-13,12.57A132,132,0,0,1,354,149c1.65,4.29,4.73,6.88,8,10,4.09-1.61,6.76-4.58,9.75-7.69,3.26-3.33,6.48-6.62,10.06-9.62,4.84-4.12,9.22-8.7,13.69-13.21,3.71-3.74,7.48-7.32,11.51-10.72,4.54-4,8.73-8.44,13-12.76l3.31,2.81,1.86,1.58L427,111l1.79,1.45C430,114,430,114,429.82,116a14.77,14.77,0,0,1-3.94,5.33L424,123.17c-1.83,1.67-3.69,3.29-5.57,4.89-4,3.45-7.71,7.18-11.43,10.94-7.29,7.36-7.29,7.36-10.94,10.44-4.09,3.45-7.8,7.26-11.56,11.06-5,5.05-10,9.95-15.5,14.5q-2,1.71-4,3.44L362,181c-11.71-11.54-11.71-11.54-15.38-15.88-3.9-4.59-8.22-8.75-12.5-13-3.63-3.61-7.09-7.28-10.39-11.19-3.71-4.18-7.75-8-11.73-11.95a120.21,120.21,0,0,1,13.75-14.16c4.14-3.78,8.12-7.67,12.06-11.65,3.28-3.33,6.55-6.61,10.12-9.63,4.57-3.87,8.7-8.18,12.91-12.43,3.7-3.72,7.46-7.28,11.47-10.67C375,68.11,377.44,65.56,380,63Z" fill="hsl(217.2 91.2% 59.8%)" />
	<path d="M120,317c7.07,5.63,13,12.3,19,19l2.38,2.64,4.34,4.83c2.57,2.86,5.17,5.69,7.78,8.53l2.77,3c1.78,2,3.58,3.88,5.39,5.81l2.46,2.66,2.2,2.34A11.32,11.32,0,0,1,169,372l-1.77,1.58Q160,380,153,386.5q-6.69,6.13-13.44,12.19c-3.39,3.05-6.75,6.14-10.11,9.22q-5.85,5.38-11.8,10.67c-2,1.86-4,3.74-6,5.64l-1.76,1.68c-1.14,1.09-2.27,2.18-3.4,3.29-4,3.81-4,3.81-8.46,3.81a30.36,30.36,0,0,1-4.25-4.5L91.55,426,90,424a90.21,90.21,0,0,1,11.6-11.93c3-2.58,5.88-5.26,8.77-7.95q7-6.48,14.09-12.84c2.89-2.6,5.74-5.22,8.6-7.84q7.4-6.81,14.94-13.44l-2.82-3.88-1.58-2.18c-1.64-2.17-1.64-2.17-4.6-3.94q-8.05,7.2-16,14.5-6.69,6.13-13.44,12.19-4.31,3.87-8.56,7.81-5.74,5.26-11.5,10.5l-2.35,2.12c-2,1.73-4,3.33-6.15,4.88a17.15,17.15,0,0,1-7.25-5.63l-1.58-1.91L71,403a19.79,19.79,0,0,1,5.19-7.21L78.05,394l2-1.84,2.07-1.91q5.79-5.32,11.73-10.46c2.82-2.48,5.57-5,8.33-7.57l1.67-1.56,3.39-3.13C121,354.84,121,354.84,128,349a29.91,29.91,0,0,0-4.63-7.25L121,339c-3.67.57-5.25,1.94-7.75,4.62s-5.14,5.22-7.94,7.63c-3.59,3.09-7.09,6.28-10.56,9.5L93,362.31l-3.39,3.14q-5.4,5-10.82,9.94Q76,378,73.18,380.55A84.22,84.22,0,0,1,60,391l-9-10c5.36-6.7,11.62-12.3,18-18l2.57-2.32,4.86-4.37q4.31-3.88,8.57-7.81,6.66-6.13,13.42-12.18c2.94-2.65,5.85-5.33,8.76-8C111.33,324.45,115.58,320.67,120,317Z" fill="hsl(217.2 91.2% 59.8%)" />
	<path d="M311,373a310.34,310.34,0,0,1,7.57,30.55q2.7,12.81,5.6,25.58c.45,2,.89,4,1.34,5.94,1.27,5.61,2.55,11.22,3.89,16.82l.6,2.57c.36,1.51.73,3,1.1,4.54a39.82,39.82,0,0,1,.9,5c-3.37,3.36-7.58,4-12.24,4.05L317,468l-.64-3c-3.64-17-7.28-34-11.41-50.95q-2.68-11-4.95-22.05l-14,1,.81,3.07c3.46,13.38,6.38,26.86,9.24,40.38.33,1.53.65,3.06,1,4.6l.48,2.26c1.4,6.47,3,12.86,4.75,19.24A35.72,35.72,0,0,1,303,472l-5.32,1.5-3,.84A15.94,15.94,0,0,1,289,475q-4.23-18.21-8.41-36.41c-.56-2.45-1.13-4.9-1.69-7.35q-1.23-5.36-2.45-10.71c-.44-1.93-.89-3.85-1.33-5.78A140.88,140.88,0,0,1,272,397l-13,3c1.33,8.33,2.89,16.57,4.68,24.81l.78,3.6q2.18,10,4.45,20.06l.48,2.12q1.16,5.1,2.33,10.19l.86,3.74.75,3.28c.7,3.39,1.21,6.77,1.67,10.2-5.29,1.76-9.44,2-15,2l-.63-2.81q-5.49-24.79-11.06-49.57l-.86-3.81q-2-8.79-4-17.56l-.72-3.12q-.65-2.86-1.31-5.71l-.58-2.5-.5-2.17A13.13,13.13,0,0,1,240,389c10.56-3.05,21.23-5.38,32-7.64,9.48-2,18.89-4.2,28.28-6.53l3-.73,2.58-.65A17.45,17.45,0,0,1,311,373Z" fill="hsl(217.2 91.2% 59.8%)" />
	<path d="M34,148a149,149,0,0,1,17.24,4.6l2.33.76L61,155.85l5.27,1.73,11,3.62q7,2.34,14.08,4.65l10.83,3.57,5.2,1.72,7.23,2.39,2.17.72c4.94,1.63,4.94,1.63,7.17,2.75a137.9,137.9,0,0,1-4.88,17.75c-1.75,5.1-3.43,10.21-5,15.37-2.28,7.46-4.82,14.82-7.38,22.19-.47,1.34-.93,2.68-1.4,4q-1.67,4.85-3.35,9.68a148.59,148.59,0,0,1-17.25-4.6l-2.33-.76-7.51-2.49-5.27-1.73-11-3.63-14.08-4.64-10.83-3.58-5.2-1.71-7.23-2.39-2.17-.72c-4.94-1.64-4.94-1.64-7.16-2.75q.71-2.66,1.43-5.31l.81-3Q15,205.82,16,203a85.32,85.32,0,0,1,13.56,3.8l2.51.84L40,210.31l10.37,3.49,2.54.85c5.71,1.91,11.45,3.71,17.21,5.46,4.61,1.43,9.15,3,13.69,4.64l2.71,1L93,228l.36-1.79.51-2.4.49-2.35A56.49,56.49,0,0,1,97,214L95,213.5c-7.89-2.09-15.65-4.55-23.41-7.1l-4-1.32-8.38-2.74c-3.58-1.18-7.16-2.34-10.74-3.51l-8.3-2.72-4-1.29L30.71,193l-3.16-1a18.78,18.78,0,0,1-5.6-3,55.17,55.17,0,0,1,3-13,70.52,70.52,0,0,1,14.22,3.22l2.07.68,6.7,2.23,4.68,1.54,12.26,4.06,12.52,4.14q12.28,4,24.55,8.13l.39-1.86.53-2.45.53-2.42A39.68,39.68,0,0,1,106,186l-3.58-.7a209.87,209.87,0,0,1-20.23-6.06l-4.26-1.39L69,174.93l-11.35-3.74-8.76-2.88-4.19-1.38L38.9,165l-3.35-1.11A25.59,25.59,0,0,1,31,162,53.36,53.36,0,0,1,34,148Z" fill="hsl(217.2 91.2% 59.8%)" />
</svg>
